<svg id="svg" version="1.1" xmlns="http://www.w3.org/2000/svg" xmlns:xlink="http://www.w3.org/1999/xlink" width="400" height="325.51020408163265" viewBox="0, 0, 400,325.51020408163265"><g id="svgg"><path id="path0" d="M91.771 56.354 C 91.460 57.072,91.205 57.951,91.205 58.308 C 91.205 58.666,91.059 58.958,90.879 58.958 C 90.700 58.958,90.554 59.161,90.554 59.409 C 90.554 59.657,90.335 60.280,90.067 60.793 C 89.800 61.307,89.580 61.983,89.579 62.296 C 89.577 62.610,89.439 62.866,89.271 62.866 C 89.103 62.866,88.866 63.525,88.746 64.329 C 88.625 65.133,88.409 65.719,88.266 65.630 C 88.123 65.542,87.907 66.056,87.786 66.772 C 87.664 67.489,87.432 68.157,87.268 68.259 C 87.105 68.360,86.970 68.690,86.969 68.993 C 86.968 69.296,86.748 69.964,86.480 70.477 C 86.212 70.990,85.993 71.601,85.993 71.834 C 85.993 72.068,85.855 72.307,85.685 72.367 C 85.515 72.427,85.288 72.989,85.179 73.616 C 85.071 74.243,84.843 74.805,84.673 74.864 C 84.504 74.924,84.360 75.290,84.354 75.679 C 84.348 76.067,84.060 76.971,83.713 77.687 C 83.367 78.404,83.079 79.238,83.073 79.541 C 83.067 79.844,82.942 80.166,82.796 80.256 C 82.650 80.346,82.251 81.296,81.909 82.366 C 81.567 83.437,81.170 84.240,81.026 84.152 C 80.883 84.063,80.797 84.111,80.836 84.259 C 80.951 84.699,80.428 86.625,79.939 87.563 C 79.688 88.043,79.482 88.664,79.481 88.941 C 79.480 89.219,79.352 89.586,79.196 89.756 C 79.040 89.926,78.657 90.798,78.345 91.694 C 77.821 93.196,77.153 94.823,76.522 96.133 C 76.381 96.424,76.167 97.192,76.045 97.840 C 75.915 98.536,75.685 98.931,75.484 98.807 C 75.297 98.691,75.232 98.740,75.340 98.914 C 75.448 99.089,75.311 99.662,75.036 100.186 C 74.760 100.711,74.479 101.416,74.411 101.754 C 74.242 102.597,73.231 105.302,72.937 105.700 C 72.805 105.879,72.594 106.576,72.468 107.248 C 72.343 107.919,72.123 108.469,71.979 108.469 C 71.836 108.469,71.619 109.055,71.498 109.772 C 71.377 110.489,71.145 111.075,70.981 111.075 C 70.818 111.075,70.684 111.278,70.684 111.526 C 70.684 111.775,70.465 112.397,70.197 112.911 C 69.930 113.424,69.710 114.100,69.709 114.414 C 69.708 114.727,69.573 114.984,69.410 114.984 C 69.246 114.984,69.014 115.569,68.893 116.285 C 68.772 117.001,68.556 117.659,68.412 117.747 C 68.269 117.836,68.055 118.423,67.937 119.052 C 67.819 119.681,67.583 120.195,67.412 120.195 C 67.241 120.195,67.101 120.562,67.101 121.010 C 67.101 121.458,66.967 121.824,66.804 121.824 C 66.640 121.824,66.408 122.410,66.287 123.125 C 66.166 123.841,65.933 124.509,65.770 124.610 C 65.606 124.711,65.471 125.042,65.470 125.345 C 65.469 125.648,65.249 126.316,64.982 126.829 C 64.714 127.342,64.495 127.892,64.495 128.052 C 64.495 128.211,64.139 129.080,63.704 129.982 C 63.268 130.885,62.817 132.057,62.701 132.587 C 62.584 133.117,62.354 133.550,62.189 133.550 C 62.024 133.550,61.917 133.660,61.951 133.795 C 62.080 134.301,61.499 136.156,61.212 136.156 C 61.047 136.156,60.936 136.266,60.965 136.401 C 61.053 136.799,60.563 138.516,60.013 139.739 C 59.731 140.366,59.501 141.063,59.501 141.287 C 59.501 141.511,59.378 141.694,59.229 141.694 C 59.080 141.694,58.958 141.970,58.958 142.308 C 58.958 142.646,58.739 143.342,58.471 143.855 C 58.203 144.368,57.984 145.045,57.982 145.358 C 57.981 145.672,57.847 145.928,57.683 145.928 C 57.520 145.928,57.287 146.515,57.166 147.233 C 57.045 147.950,56.828 148.465,56.685 148.376 C 56.542 148.288,56.326 148.873,56.205 149.678 C 56.085 150.482,55.849 151.140,55.680 151.140 C 55.512 151.140,55.375 151.342,55.375 151.589 C 55.375 152.034,53.642 156.681,53.098 157.696 C 52.941 157.988,52.714 158.757,52.592 159.406 C 52.470 160.055,52.240 160.586,52.081 160.586 C 51.922 160.586,51.792 160.879,51.792 161.238 C 51.792 161.596,51.654 161.889,51.486 161.889 C 51.318 161.889,51.081 162.549,50.960 163.355 C 50.839 164.161,50.612 164.821,50.455 164.821 C 50.299 164.821,50.077 165.407,49.962 166.124 C 49.848 166.840,49.633 167.427,49.485 167.427 C 49.336 167.427,49.119 167.940,49.001 168.567 C 48.884 169.194,48.657 169.707,48.498 169.707 C 48.339 169.707,48.208 170.073,48.208 170.521 C 48.208 170.969,48.053 171.336,47.864 171.336 C 47.674 171.336,47.603 171.472,47.706 171.639 C 47.809 171.806,47.744 172.034,47.562 172.147 C 47.380 172.259,47.231 172.700,47.231 173.127 C 47.231 173.554,47.096 173.987,46.931 174.089 C 46.765 174.191,46.532 174.723,46.411 175.270 C 46.291 175.817,45.988 176.659,45.737 177.139 C 45.486 177.620,45.280 178.174,45.279 178.370 C 45.278 178.567,45.048 179.186,44.769 179.746 C 44.489 180.306,44.238 181.062,44.211 181.425 C 44.183 181.788,44.046 182.085,43.905 182.085 C 43.764 182.085,43.648 182.305,43.648 182.573 C 43.648 182.842,43.493 183.062,43.303 183.062 C 43.114 183.062,43.042 183.197,43.145 183.363 C 43.347 183.690,42.695 185.381,42.243 185.704 C 42.089 185.814,41.983 185.998,42.006 186.114 C 42.107 186.618,41.598 188.599,41.368 188.599 C 41.229 188.599,41.023 189.090,40.910 189.690 C 40.798 190.289,40.342 191.535,39.897 192.457 C 39.452 193.379,39.088 194.427,39.088 194.787 C 39.088 195.146,38.941 195.440,38.762 195.440 C 38.583 195.440,38.436 195.696,38.434 196.010 C 38.433 196.323,38.219 196.989,37.958 197.489 C 37.697 197.990,37.389 198.906,37.272 199.525 C 37.156 200.145,36.931 200.651,36.772 200.651 C 36.612 200.651,36.482 200.932,36.482 201.276 C 36.482 201.619,36.344 201.949,36.176 202.009 C 36.007 202.068,35.791 202.557,35.696 203.094 C 35.535 204.009,34.806 205.999,34.191 207.207 C 34.042 207.499,33.821 208.268,33.699 208.918 C 33.578 209.567,33.348 210.098,33.189 210.098 C 33.029 210.098,32.899 210.301,32.899 210.549 C 32.899 210.797,32.680 211.420,32.412 211.933 C 32.145 212.447,31.925 213.123,31.924 213.436 C 31.923 213.750,31.788 214.007,31.625 214.007 C 31.461 214.007,31.229 214.592,31.108 215.308 C 30.987 216.023,30.771 216.681,30.627 216.770 C 30.484 216.858,30.270 217.446,30.152 218.075 C 30.034 218.704,29.817 219.218,29.669 219.218 C 29.520 219.218,29.305 219.805,29.191 220.521 C 29.076 221.238,28.838 221.824,28.661 221.824 C 28.484 221.824,28.339 222.112,28.339 222.465 C 28.339 222.817,28.131 223.586,27.877 224.175 C 27.624 224.763,27.177 225.831,26.884 226.547 C 26.592 227.264,26.232 228.075,26.084 228.349 C 25.937 228.624,25.714 229.314,25.589 229.883 C 25.464 230.451,25.088 231.483,24.754 232.174 C 24.420 232.866,24.041 233.852,23.912 234.365 C 23.783 234.879,23.482 235.675,23.242 236.135 C 23.002 236.594,22.804 237.227,22.803 237.541 C 22.802 237.854,22.666 238.111,22.501 238.111 C 22.337 238.111,22.108 238.587,21.994 239.169 C 21.785 240.233,21.679 240.528,20.717 242.720 C 20.430 243.374,20.195 244.054,20.195 244.230 C 20.195 244.407,19.976 244.971,19.709 245.484 C 19.441 245.997,19.221 246.673,19.220 246.987 C 19.219 247.300,19.085 247.557,18.921 247.557 C 18.758 247.557,18.525 248.144,18.404 248.861 C 18.282 249.579,18.050 250.083,17.886 249.982 C 17.723 249.881,17.590 250.165,17.590 250.613 C 17.590 251.061,17.435 251.523,17.247 251.639 C 17.058 251.756,16.961 252.021,17.031 252.229 C 17.101 252.436,16.889 253.087,16.559 253.674 C 16.230 254.262,15.960 254.922,15.959 255.140 C 15.958 255.359,15.743 255.947,15.482 256.447 C 15.222 256.947,14.913 257.863,14.797 258.483 C 14.681 259.102,14.468 259.609,14.325 259.609 C 14.181 259.609,13.965 260.195,13.844 260.912 C 13.723 261.629,13.490 262.215,13.326 262.215 C 13.163 262.215,13.029 262.418,13.029 262.666 C 13.029 262.915,12.810 263.538,12.543 264.051 C 12.275 264.564,12.055 265.314,12.054 265.717 C 12.053 266.120,11.917 266.450,11.752 266.450 C 11.587 266.450,11.351 266.926,11.226 267.508 C 11.102 268.090,10.887 268.713,10.749 268.893 C 10.611 269.072,10.397 269.695,10.272 270.277 C 10.148 270.859,9.911 271.336,9.746 271.336 C 9.581 271.336,9.446 271.702,9.446 272.150 C 9.446 272.598,9.316 272.964,9.157 272.964 C 8.998 272.964,8.768 273.495,8.646 274.144 C 8.524 274.793,8.297 275.563,8.142 275.854 C 7.632 276.812,7.170 278.571,7.352 278.865 C 7.550 279.184,38.725 279.272,39.550 278.955 C 39.833 278.847,40.065 278.489,40.065 278.160 C 40.065 277.832,40.195 277.483,40.354 277.384 C 40.513 277.286,40.738 276.697,40.855 276.076 C 40.971 275.455,41.280 274.537,41.541 274.037 C 41.802 273.536,42.016 272.797,42.018 272.394 C 42.019 271.991,42.153 271.661,42.317 271.661 C 42.480 271.661,42.713 271.076,42.834 270.360 C 42.955 269.644,43.174 268.984,43.322 268.893 C 43.470 268.801,43.690 268.141,43.811 267.425 C 43.932 266.709,44.165 266.124,44.328 266.124 C 44.492 266.124,44.625 265.757,44.625 265.309 C 44.625 264.862,44.763 264.495,44.931 264.495 C 45.099 264.495,45.336 263.836,45.457 263.029 C 45.578 262.223,45.794 261.564,45.937 261.564 C 46.080 261.564,46.296 260.977,46.417 260.261 C 46.538 259.544,46.762 258.958,46.914 258.958 C 47.067 258.958,47.290 258.298,47.411 257.492 C 47.532 256.686,47.761 256.026,47.920 256.026 C 48.079 256.026,48.208 255.738,48.208 255.386 C 48.208 255.033,48.416 254.264,48.670 253.676 C 48.924 253.087,49.363 252.071,49.647 251.417 C 49.931 250.762,50.163 249.928,50.163 249.563 C 50.163 249.197,50.297 248.816,50.460 248.715 C 50.624 248.613,50.857 247.945,50.977 247.230 C 51.098 246.514,51.313 245.928,51.454 245.928 C 51.595 245.928,51.820 245.452,51.955 244.870 C 52.090 244.287,52.241 243.634,52.291 243.418 C 52.341 243.202,52.611 242.564,52.892 242.001 C 53.173 241.438,53.496 240.478,53.611 239.869 C 53.725 239.260,53.936 238.762,54.079 238.762 C 54.223 238.762,54.444 238.149,54.570 237.401 C 54.697 236.652,55.075 235.549,55.411 234.951 C 55.747 234.353,56.000 233.757,55.972 233.626 C 55.945 233.495,56.019 233.131,56.137 232.818 C 56.450 231.988,56.682 231.353,57.537 228.990 C 57.958 227.826,58.304 226.616,58.305 226.303 C 58.306 225.989,58.444 225.733,58.612 225.733 C 58.780 225.733,59.017 225.073,59.138 224.267 C 59.258 223.461,59.487 222.801,59.646 222.801 C 59.805 222.801,59.935 222.581,59.935 222.313 C 59.935 221.881,65.708 221.824,109.935 221.824 C 154.162 221.824,159.935 221.881,159.935 222.313 C 159.935 222.581,160.081 222.801,160.261 222.801 C 160.440 222.801,160.587 223.131,160.588 223.534 C 160.589 223.937,160.811 224.690,161.080 225.206 C 161.349 225.722,161.660 226.709,161.770 227.399 C 161.880 228.088,162.081 228.585,162.215 228.502 C 162.349 228.419,162.554 228.941,162.669 229.662 C 162.784 230.383,163.010 231.223,163.171 231.529 C 163.837 232.795,164.495 234.495,164.495 234.947 C 164.495 235.213,164.714 235.850,164.982 236.363 C 165.249 236.877,165.469 237.544,165.470 237.847 C 165.471 238.150,165.602 238.478,165.761 238.577 C 165.920 238.675,166.149 239.281,166.269 239.923 C 166.390 240.566,166.771 241.595,167.117 242.211 C 167.463 242.827,167.840 243.915,167.954 244.630 C 168.068 245.344,168.276 245.928,168.417 245.928 C 168.557 245.928,168.771 246.514,168.892 247.230 C 169.013 247.945,169.229 248.603,169.373 248.692 C 169.516 248.780,169.732 249.378,169.852 250.021 C 169.973 250.664,170.354 251.693,170.700 252.309 C 171.046 252.925,171.423 254.013,171.537 254.727 C 171.651 255.442,171.859 256.026,172.000 256.026 C 172.140 256.026,172.354 256.612,172.475 257.327 C 172.596 258.043,172.829 258.711,172.993 258.812 C 173.156 258.913,173.291 259.244,173.292 259.547 C 173.293 259.850,173.513 260.518,173.781 261.031 C 174.048 261.544,174.267 262.181,174.267 262.447 C 174.267 262.893,174.913 264.569,175.575 265.839 C 175.727 266.131,175.951 266.900,176.073 267.549 C 176.194 268.199,176.424 268.730,176.583 268.730 C 176.743 268.730,176.873 268.976,176.873 269.277 C 176.873 269.975,178.191 274.005,178.553 274.414 C 178.704 274.584,178.827 274.987,178.827 275.309 C 178.827 275.632,178.957 275.896,179.116 275.896 C 179.275 275.896,179.502 276.542,179.620 277.333 C 179.910 279.265,178.897 279.153,196.091 279.153 C 214.057 279.153,212.987 279.320,211.726 276.710 C 211.380 275.993,211.092 275.222,211.086 274.996 C 211.080 274.769,210.941 274.329,210.777 274.018 C 210.091 272.718,209.446 271.039,209.446 270.553 C 209.446 270.267,209.313 270.033,209.149 270.033 C 208.986 270.033,208.753 269.446,208.632 268.730 C 208.511 268.013,208.297 267.427,208.156 267.427 C 208.016 267.427,207.807 266.840,207.693 266.124 C 207.578 265.407,207.339 264.821,207.162 264.821 C 206.985 264.821,206.840 264.527,206.840 264.168 C 206.840 263.809,206.484 262.776,206.049 261.874 C 205.614 260.972,205.160 259.790,205.041 259.248 C 204.922 258.706,204.619 257.869,204.369 257.388 C 204.118 256.908,203.912 256.267,203.911 255.964 C 203.910 255.661,203.778 255.332,203.619 255.234 C 203.460 255.136,203.230 254.660,203.109 254.178 C 202.988 253.696,202.608 252.719,202.264 252.008 C 201.921 251.296,201.547 250.224,201.435 249.624 C 201.322 249.025,201.102 248.534,200.945 248.534 C 200.788 248.534,200.565 247.948,200.451 247.231 C 200.336 246.515,200.128 245.928,199.987 245.928 C 199.846 245.928,199.632 245.342,199.511 244.625 C 199.390 243.909,199.176 243.322,199.035 243.322 C 198.894 243.322,198.683 242.847,198.567 242.266 C 198.299 240.926,197.635 239.414,197.315 239.414 C 197.179 239.414,197.068 239.126,197.068 238.774 C 197.068 238.201,196.238 235.768,195.451 234.039 C 195.193 233.470,194.720 232.072,194.625 231.596 C 194.607 231.507,194.270 230.745,193.876 229.904 C 193.482 229.063,193.160 228.073,193.160 227.705 C 193.160 227.337,193.015 227.036,192.838 227.036 C 192.661 227.036,192.422 226.450,192.307 225.733 C 192.193 225.016,191.971 224.430,191.815 224.430 C 191.659 224.430,191.530 224.173,191.529 223.860 C 191.528 223.546,191.308 222.870,191.040 222.357 C 190.773 221.844,190.554 221.221,190.554 220.973 C 190.554 220.724,190.420 220.521,190.257 220.521 C 190.093 220.521,189.860 219.935,189.739 219.218 C 189.618 218.502,189.386 217.915,189.222 217.915 C 189.059 217.915,188.924 217.586,188.923 217.182 C 188.922 216.779,188.716 216.056,188.465 215.576 C 188.214 215.095,187.911 214.254,187.791 213.706 C 187.670 213.159,187.437 212.627,187.271 212.525 C 187.106 212.423,186.971 212.055,186.971 211.707 C 186.971 211.359,186.824 211.075,186.645 211.075 C 186.466 211.075,186.314 210.745,186.308 210.342 C 186.302 209.939,186.014 209.023,185.668 208.306 C 185.322 207.590,185.033 206.818,185.027 206.592 C 185.021 206.365,184.880 205.926,184.713 205.614 C 184.546 205.303,184.090 204.169,183.698 203.094 C 183.306 202.020,182.856 200.886,182.698 200.574 C 182.540 200.263,182.410 199.787,182.410 199.516 C 182.410 199.245,182.277 199.023,182.113 199.023 C 181.950 199.023,181.717 198.436,181.596 197.720 C 181.475 197.003,181.255 196.417,181.107 196.417 C 180.960 196.417,180.740 195.831,180.619 195.116 C 180.498 194.400,180.293 193.749,180.162 193.668 C 180.032 193.587,179.641 192.634,179.295 191.549 C 178.948 190.464,178.555 189.577,178.420 189.577 C 178.286 189.577,178.175 189.320,178.174 189.007 C 178.173 188.693,177.967 188.043,177.716 187.563 C 177.465 187.082,177.159 186.229,177.036 185.668 C 176.912 185.106,176.606 184.253,176.356 183.773 C 176.105 183.292,175.899 182.651,175.898 182.348 C 175.897 182.045,175.749 181.707,175.570 181.596 C 175.391 181.485,175.244 181.110,175.244 180.763 C 175.244 180.415,175.111 180.130,174.947 180.130 C 174.784 180.130,174.551 179.544,174.430 178.827 C 174.309 178.111,174.076 177.524,173.913 177.524 C 173.749 177.524,173.615 177.268,173.614 176.954 C 173.613 176.641,173.398 175.975,173.137 175.475 C 172.876 174.975,172.568 174.058,172.451 173.439 C 172.335 172.820,172.128 172.313,171.991 172.313 C 171.855 172.313,171.648 171.837,171.531 171.257 C 171.263 169.916,170.599 168.404,170.279 168.404 C 170.143 168.404,170.032 168.074,170.031 167.671 C 170.029 167.268,169.832 166.562,169.592 166.102 C 169.352 165.642,169.064 164.901,168.952 164.454 C 168.840 164.008,168.498 163.065,168.192 162.359 C 167.886 161.653,167.623 160.928,167.606 160.749 C 167.590 160.570,167.249 159.735,166.850 158.894 C 166.451 158.053,166.124 157.145,166.124 156.877 C 166.124 156.610,165.977 156.300,165.798 156.189 C 165.619 156.078,165.472 155.762,165.472 155.486 C 165.472 155.210,165.240 154.449,164.957 153.795 C 164.673 153.141,164.233 152.125,163.979 151.536 C 163.726 150.948,163.518 150.252,163.518 149.989 C 163.518 149.726,163.390 149.511,163.234 149.511 C 163.078 149.511,162.856 148.925,162.741 148.208 C 162.627 147.492,162.388 146.906,162.211 146.906 C 162.034 146.906,161.888 146.576,161.887 146.173 C 161.886 145.770,161.666 145.020,161.399 144.507 C 161.131 143.994,160.912 143.429,160.912 143.253 C 160.912 143.077,160.675 142.397,160.385 141.743 C 159.124 138.900,158.958 138.484,158.958 138.180 C 158.958 138.004,158.739 137.440,158.471 136.926 C 158.203 136.413,157.984 135.766,157.982 135.489 C 157.981 135.211,157.843 134.844,157.674 134.674 C 157.506 134.504,157.291 133.938,157.198 133.416 C 157.104 132.894,156.875 132.315,156.689 132.129 C 156.504 131.943,156.351 131.564,156.350 131.287 C 156.349 131.009,156.129 130.362,155.861 129.849 C 155.594 129.336,155.375 128.713,155.375 128.464 C 155.375 128.216,155.241 128.013,155.077 128.013 C 154.914 128.013,154.681 127.427,154.560 126.710 C 154.439 125.993,154.206 125.407,154.043 125.407 C 153.880 125.407,153.746 125.163,153.746 124.865 C 153.746 124.304,151.867 119.306,151.440 118.730 C 151.307 118.550,151.096 117.854,150.970 117.182 C 150.845 116.511,150.628 115.961,150.489 115.961 C 150.349 115.961,150.142 115.463,150.028 114.854 C 149.837 113.837,149.282 112.425,148.513 110.998 C 148.346 110.687,148.208 110.137,148.208 109.776 C 148.208 109.416,148.064 109.121,147.887 109.121 C 147.710 109.121,147.471 108.534,147.356 107.818 C 147.242 107.101,147.033 106.515,146.893 106.515 C 146.752 106.515,146.538 105.928,146.417 105.212 C 146.296 104.495,146.063 103.909,145.900 103.909 C 145.736 103.909,145.602 103.652,145.601 103.339 C 145.599 103.025,145.380 102.349,145.112 101.836 C 144.844 101.323,144.625 100.618,144.625 100.269 C 144.625 99.921,144.479 99.726,144.300 99.837 C 144.119 99.949,143.973 99.704,143.972 99.286 C 143.971 98.873,143.751 98.114,143.483 97.601 C 143.216 97.088,142.996 96.502,142.995 96.298 C 142.994 96.095,142.788 95.535,142.537 95.055 C 142.286 94.574,141.976 93.704,141.848 93.122 C 141.721 92.540,141.364 91.614,141.056 91.064 C 140.749 90.515,140.558 89.882,140.634 89.658 C 140.709 89.434,140.612 89.251,140.418 89.251 C 140.224 89.251,140.065 88.966,140.065 88.619 C 140.065 88.271,139.931 87.904,139.768 87.803 C 139.604 87.701,139.371 87.033,139.251 86.318 C 139.130 85.602,138.897 85.016,138.734 85.016 C 138.570 85.016,138.436 84.782,138.436 84.495 C 138.436 84.209,138.217 83.476,137.948 82.867 C 137.679 82.257,137.239 81.260,136.971 80.651 C 136.702 80.042,136.482 79.309,136.482 79.022 C 136.482 78.736,136.348 78.502,136.185 78.502 C 136.022 78.502,135.789 77.916,135.668 77.200 C 135.547 76.485,135.314 75.816,135.151 75.715 C 134.987 75.614,134.853 75.306,134.853 75.030 C 134.853 74.754,134.621 73.993,134.338 73.339 C 134.054 72.685,133.614 71.668,133.360 71.080 C 133.107 70.492,132.899 69.796,132.899 69.533 C 132.899 69.270,132.765 69.055,132.602 69.055 C 132.439 69.055,132.206 68.470,132.085 67.754 C 131.964 67.038,131.731 66.370,131.568 66.269 C 131.404 66.168,131.269 65.837,131.268 65.535 C 131.267 65.232,131.061 64.590,130.810 64.110 C 130.560 63.629,130.256 62.788,130.136 62.241 C 130.016 61.693,129.782 61.162,129.617 61.059 C 129.451 60.957,129.316 60.589,129.316 60.241 C 129.316 59.894,129.182 59.609,129.019 59.609 C 128.855 59.609,128.623 59.023,128.502 58.306 C 128.381 57.590,128.166 57.003,128.025 57.003 C 127.884 57.003,127.681 56.564,127.573 56.026 L 127.378 55.049 109.857 55.049 L 92.336 55.049 91.771 56.354 M110.929 89.789 C 111.188 90.353,111.401 91.123,111.401 91.499 C 111.401 91.875,111.547 92.182,111.726 92.182 C 111.906 92.182,112.052 92.471,112.052 92.823 C 112.052 93.537,113.056 95.868,113.436 96.037 C 113.571 96.097,113.682 96.463,113.683 96.851 C 113.684 97.239,113.890 97.950,114.141 98.431 C 114.391 98.911,114.702 99.786,114.832 100.375 C 114.961 100.963,115.177 101.669,115.311 101.944 C 116.012 103.376,116.612 104.962,116.612 105.386 C 116.612 105.648,116.775 105.863,116.973 105.863 C 117.171 105.863,117.261 106.053,117.172 106.285 C 117.083 106.516,117.284 107.270,117.619 107.959 C 117.954 108.647,118.321 109.704,118.434 110.306 C 118.547 110.908,118.751 111.401,118.887 111.401 C 119.023 111.401,119.229 111.987,119.343 112.704 C 119.458 113.420,119.680 114.007,119.837 114.007 C 119.993 114.007,120.220 114.666,120.341 115.472 C 120.462 116.279,120.699 116.938,120.867 116.938 C 121.035 116.938,121.173 117.231,121.173 117.590 C 121.173 117.948,121.306 118.241,121.470 118.241 C 121.633 118.241,121.866 118.827,121.987 119.542 C 122.108 120.258,122.340 120.926,122.504 121.027 C 122.667 121.128,122.802 121.459,122.803 121.762 C 122.804 122.065,123.002 122.689,123.242 123.149 C 123.482 123.609,123.783 124.405,123.912 124.918 C 124.041 125.432,124.420 126.418,124.754 127.109 C 125.088 127.801,125.459 128.810,125.578 129.352 C 125.697 129.894,125.999 130.730,126.250 131.211 C 126.501 131.691,126.707 132.414,126.708 132.818 C 126.709 133.221,126.838 133.550,126.995 133.550 C 127.152 133.550,127.368 133.989,127.475 134.526 C 127.582 135.062,127.967 136.116,128.330 136.867 C 128.693 137.618,128.991 138.389,128.992 138.579 C 128.993 138.769,129.208 139.334,129.469 139.835 C 129.730 140.335,130.038 141.253,130.155 141.874 C 130.272 142.495,130.484 143.076,130.627 143.165 C 130.771 143.253,130.987 143.911,131.108 144.627 C 131.229 145.343,131.461 145.928,131.625 145.928 C 131.788 145.928,131.922 146.221,131.922 146.580 C 131.922 146.938,132.059 147.231,132.227 147.231 C 132.395 147.231,132.525 147.488,132.516 147.801 C 132.498 148.417,133.912 152.501,134.236 152.769 C 134.345 152.858,134.535 153.481,134.658 154.153 C 134.782 154.825,135.006 155.375,135.157 155.375 C 135.308 155.375,135.530 156.034,135.651 156.840 C 135.772 157.647,136.008 158.306,136.176 158.306 C 136.344 158.306,136.482 158.599,136.482 158.958 C 136.482 159.316,136.616 159.609,136.779 159.609 C 136.943 159.609,137.175 160.195,137.296 160.910 C 137.417 161.626,137.637 162.286,137.785 162.378 C 137.933 162.469,138.153 163.130,138.274 163.845 C 138.395 164.561,138.611 165.147,138.755 165.147 C 138.898 165.147,139.114 165.671,139.234 166.311 C 139.354 166.952,139.728 167.967,140.065 168.567 C 140.402 169.167,140.776 170.183,140.897 170.826 C 141.018 171.468,141.246 172.074,141.405 172.173 C 141.564 172.271,141.694 172.577,141.694 172.853 C 141.694 173.129,141.899 173.816,142.149 174.381 C 142.400 174.945,142.869 176.177,143.191 177.117 C 143.513 178.058,143.895 178.827,144.038 178.827 C 144.182 178.827,144.300 179.084,144.301 179.397 C 144.303 179.962,145.598 183.898,145.991 184.530 C 146.103 184.711,146.298 185.406,146.423 186.075 C 146.549 186.743,146.782 187.210,146.941 187.111 C 147.101 187.013,147.231 187.307,147.231 187.766 C 147.231 188.224,147.369 188.599,147.538 188.599 C 147.707 188.599,147.789 188.893,147.720 189.251 C 147.651 189.609,147.733 189.902,147.901 189.902 C 148.070 189.902,148.208 190.187,148.208 190.535 C 148.208 190.882,148.342 191.249,148.506 191.351 C 148.669 191.452,148.902 192.120,149.023 192.836 C 149.144 193.551,149.360 194.137,149.502 194.137 C 149.645 194.137,149.831 194.503,149.917 194.951 L 150.073 195.765 109.875 195.765 L 69.677 195.765 69.902 194.544 C 70.025 193.872,70.252 193.274,70.405 193.214 C 70.558 193.154,70.684 192.824,70.684 192.481 C 70.684 192.138,70.831 191.857,71.010 191.857 C 71.189 191.857,71.316 191.747,71.292 191.612 C 71.201 191.100,71.754 189.251,71.999 189.251 C 72.140 189.251,72.354 188.665,72.475 187.950 C 72.596 187.234,72.820 186.571,72.974 186.476 C 73.127 186.382,73.351 185.648,73.471 184.846 C 73.591 184.044,73.808 183.388,73.952 183.388 C 74.097 183.388,74.319 182.916,74.446 182.340 C 74.671 181.311,74.806 180.959,75.478 179.631 C 75.662 179.267,75.916 178.499,76.042 177.925 C 76.168 177.350,76.407 176.797,76.572 176.695 C 76.738 176.592,76.874 176.261,76.875 175.958 C 76.876 175.655,77.082 175.014,77.333 174.533 C 77.584 174.053,77.895 173.178,78.024 172.590 C 78.269 171.471,78.371 171.211,79.261 169.436 C 79.560 168.839,79.805 168.078,79.805 167.745 C 79.805 167.412,79.951 167.049,80.130 166.938 C 80.309 166.827,80.461 166.489,80.467 166.186 C 80.473 165.883,80.761 165.049,81.107 164.332 C 81.454 163.616,81.742 162.700,81.748 162.296 C 81.754 161.893,81.906 161.564,82.085 161.564 C 82.264 161.564,82.410 161.268,82.410 160.908 C 82.410 160.547,82.548 159.997,82.715 159.686 C 83.418 158.381,84.000 156.946,84.206 156.007 C 84.327 155.456,84.631 154.612,84.882 154.131 C 85.133 153.651,85.339 152.928,85.340 152.524 C 85.341 152.121,85.476 151.792,85.639 151.792 C 85.803 151.792,86.035 151.205,86.156 150.489 C 86.277 149.772,86.474 149.186,86.592 149.186 C 86.711 149.186,87.097 148.270,87.450 147.150 C 87.803 146.030,88.278 144.748,88.506 144.300 C 88.734 143.852,88.922 143.156,88.923 142.752 C 88.924 142.349,89.072 142.020,89.251 142.020 C 89.430 142.020,89.577 141.785,89.577 141.499 C 89.577 141.212,89.783 140.516,90.034 139.952 C 90.286 139.387,90.751 138.192,91.068 137.296 C 91.384 136.401,91.748 135.521,91.875 135.342 C 92.003 135.163,92.211 134.530,92.338 133.936 C 92.466 133.341,92.775 132.462,93.025 131.981 C 93.276 131.501,93.482 130.860,93.483 130.557 C 93.484 130.254,93.632 129.915,93.811 129.805 C 93.990 129.694,94.137 129.319,94.137 128.971 C 94.137 128.623,94.252 128.339,94.393 128.339 C 94.534 128.339,94.672 128.042,94.699 127.679 C 94.727 127.316,94.974 126.568,95.249 126.017 C 95.523 125.467,95.842 124.518,95.956 123.909 C 96.070 123.300,96.294 122.801,96.453 122.801 C 96.612 122.801,96.744 122.471,96.745 122.068 C 96.746 121.665,96.966 120.916,97.233 120.403 C 97.501 119.889,97.720 119.266,97.720 119.018 C 97.720 118.770,97.866 118.567,98.046 118.567 C 98.225 118.567,98.347 118.457,98.318 118.322 C 98.235 117.942,98.751 116.256,99.234 115.331 C 99.474 114.871,99.671 114.165,99.672 113.762 C 99.673 113.359,99.819 113.029,99.996 113.029 C 100.173 113.029,100.412 112.443,100.526 111.726 C 100.641 111.010,100.850 110.423,100.990 110.423 C 101.131 110.423,101.350 109.800,101.477 109.039 C 101.604 108.278,101.811 107.581,101.935 107.492 C 102.293 107.235,103.257 104.616,103.257 103.902 C 103.257 103.548,103.391 103.257,103.554 103.257 C 103.718 103.257,103.951 102.671,104.072 101.954 C 104.193 101.238,104.413 100.651,104.560 100.651 C 104.708 100.651,104.928 100.065,105.049 99.349 C 105.170 98.632,105.403 98.046,105.566 98.046 C 105.729 98.046,105.863 97.777,105.863 97.448 C 105.863 97.120,105.973 96.741,106.107 96.607 C 106.242 96.473,106.364 96.265,106.378 96.145 C 106.456 95.514,106.995 93.914,107.377 93.181 C 107.617 92.721,107.814 92.097,107.816 91.794 C 107.817 91.492,107.964 91.153,108.143 91.042 C 108.322 90.932,108.469 90.615,108.469 90.339 C 108.469 90.064,108.673 89.376,108.923 88.811 C 109.172 88.247,109.484 87.492,109.616 87.134 C 109.821 86.575,109.898 86.645,110.156 87.622 C 110.322 88.249,110.670 89.224,110.929 89.789 " stroke="none" fill="#f47c2b" fill-rule="evenodd"></path><path id="path1" d="M308.990 51.088 C 308.897 51.238,305.709 51.458,301.905 51.577 C 298.101 51.695,294.907 51.920,294.807 52.075 C 294.707 52.231,293.343 52.464,291.776 52.593 C 290.210 52.722,288.854 52.946,288.764 53.092 C 288.674 53.237,287.721 53.458,286.645 53.583 C 285.569 53.708,284.608 53.942,284.508 54.104 C 284.408 54.265,283.895 54.397,283.368 54.397 C 282.842 54.397,282.410 54.527,282.410 54.686 C 282.410 54.844,281.604 55.075,280.619 55.198 C 279.634 55.321,278.827 55.541,278.827 55.687 C 278.827 55.833,278.168 56.051,277.362 56.172 C 276.555 56.293,275.896 56.513,275.896 56.660 C 275.896 56.808,275.200 57.034,274.349 57.161 C 273.498 57.289,272.728 57.488,272.638 57.605 C 272.350 57.981,268.007 59.935,267.459 59.935 C 267.262 59.935,267.101 60.070,267.101 60.235 C 267.101 60.400,266.661 60.631,266.124 60.749 C 265.586 60.867,265.147 61.083,265.147 61.228 C 265.147 61.374,264.780 61.585,264.332 61.697 C 263.884 61.810,263.518 62.045,263.518 62.221 C 263.518 62.397,263.298 62.541,263.029 62.541 C 262.761 62.541,262.541 62.671,262.541 62.831 C 262.541 62.991,262.174 63.214,261.726 63.326 C 261.279 63.438,260.912 63.674,260.912 63.850 C 260.912 64.026,260.760 64.169,260.573 64.169 C 260.183 64.169,258.376 65.393,257.655 66.146 C 257.386 66.428,256.910 66.753,256.596 66.869 C 256.283 66.985,256.026 67.232,256.026 67.416 C 256.026 67.601,255.804 67.752,255.533 67.752 C 255.090 67.752,247.231 75.329,247.231 75.755 C 247.231 75.852,246.792 76.400,246.256 76.972 C 245.719 77.545,245.279 78.184,245.278 78.393 C 245.278 78.602,245.167 78.822,245.033 78.882 C 244.683 79.037,243.151 81.164,242.902 81.840 C 242.786 82.154,242.552 82.410,242.381 82.410 C 242.211 82.410,241.975 82.850,241.857 83.388 C 241.739 83.925,241.523 84.365,241.378 84.365 C 241.233 84.365,241.019 84.878,240.901 85.505 C 240.783 86.132,240.547 86.645,240.376 86.645 C 240.205 86.645,240.065 86.865,240.065 87.134 C 240.065 87.402,239.919 87.622,239.739 87.622 C 239.560 87.622,239.413 87.805,239.412 88.029 C 239.411 88.253,239.205 88.830,238.954 89.310 C 238.703 89.791,238.397 90.644,238.274 91.205 C 238.150 91.767,237.844 92.620,237.593 93.100 C 237.343 93.581,237.137 94.377,237.136 94.870 C 237.134 95.362,236.987 95.765,236.808 95.765 C 236.629 95.765,236.482 96.176,236.482 96.678 C 236.482 97.179,236.343 97.729,236.173 97.899 C 236.004 98.069,235.762 99.235,235.636 100.489 C 235.511 101.743,235.247 102.873,235.049 103.001 C 234.535 103.334,234.547 127.084,235.061 127.719 C 235.265 127.970,235.536 129.092,235.664 130.212 C 235.791 131.332,236.027 132.330,236.188 132.430 C 236.350 132.530,236.482 133.043,236.482 133.570 C 236.482 134.097,236.612 134.528,236.771 134.528 C 236.930 134.528,237.158 135.187,237.279 135.993 C 237.400 136.800,237.618 137.459,237.763 137.459 C 237.909 137.459,238.121 138.046,238.236 138.762 C 238.350 139.479,238.559 140.065,238.699 140.065 C 238.839 140.065,239.227 140.871,239.562 141.857 C 239.897 142.842,240.291 143.648,240.438 143.648 C 240.584 143.648,240.796 144.015,240.909 144.463 C 241.021 144.910,241.228 145.277,241.368 145.277 C 241.508 145.277,241.715 145.643,241.828 146.091 C 241.940 146.539,242.176 146.906,242.351 146.906 C 242.527 146.906,242.671 147.130,242.671 147.404 C 242.671 147.679,242.891 147.988,243.160 148.091 C 243.428 148.194,243.648 148.447,243.648 148.654 C 243.648 148.860,244.015 149.425,244.463 149.908 C 244.910 150.391,245.277 150.885,245.277 151.007 C 245.277 151.556,254.204 159.935,254.790 159.935 C 255.047 159.935,256.004 160.654,257.020 161.613 C 257.334 161.909,257.898 162.248,258.274 162.368 C 258.650 162.487,258.958 162.710,258.958 162.863 C 258.958 163.015,259.397 163.237,259.935 163.355 C 260.472 163.473,260.912 163.689,260.912 163.834 C 260.912 163.980,261.279 164.191,261.726 164.303 C 262.174 164.416,262.541 164.651,262.541 164.827 C 262.541 165.003,262.761 165.147,263.029 165.147 C 263.298 165.147,263.518 165.293,263.518 165.472 C 263.518 165.651,263.701 165.803,263.925 165.809 C 264.149 165.815,264.919 166.103,265.635 166.450 C 266.352 166.796,267.195 167.084,267.508 167.090 C 267.822 167.096,268.078 167.241,268.078 167.412 C 268.078 167.583,268.591 167.819,269.218 167.937 C 269.845 168.054,270.358 168.281,270.358 168.440 C 270.358 168.599,270.651 168.730,271.010 168.730 C 271.368 168.730,271.661 168.863,271.661 169.027 C 271.661 169.190,272.248 169.423,272.964 169.544 C 273.681 169.665,274.267 169.889,274.267 170.041 C 274.267 170.194,274.927 170.417,275.733 170.538 C 276.539 170.659,277.199 170.874,277.199 171.016 C 277.199 171.158,277.932 171.375,278.827 171.498 C 279.723 171.622,280.456 171.855,280.456 172.018 C 280.456 172.180,280.741 172.313,281.088 172.313 C 281.436 172.313,281.808 172.455,281.916 172.629 C 282.024 172.803,282.838 173.042,283.727 173.160 C 284.615 173.277,285.342 173.481,285.342 173.612 C 285.342 173.743,286.090 173.939,287.005 174.048 C 287.920 174.156,288.836 174.382,289.041 174.550 C 289.246 174.718,290.293 174.961,291.368 175.090 C 292.443 175.219,293.469 175.435,293.648 175.569 C 293.995 175.829,294.886 176.026,298.534 176.647 C 299.788 176.861,300.970 177.137,301.159 177.261 C 301.349 177.385,302.632 177.588,304.009 177.713 C 305.387 177.838,306.515 178.054,306.515 178.193 C 306.515 178.332,307.614 178.549,308.958 178.675 C 310.301 178.801,311.401 179.018,311.401 179.159 C 311.401 179.299,312.024 179.495,312.785 179.595 C 316.014 180.020,319.067 180.597,319.218 180.811 C 319.308 180.938,320.226 181.147,321.258 181.275 C 322.291 181.404,323.207 181.624,323.294 181.765 C 323.381 181.906,324.331 182.123,325.407 182.247 C 326.482 182.372,327.362 182.590,327.362 182.731 C 327.362 182.872,328.021 183.087,328.827 183.208 C 329.634 183.329,330.293 183.565,330.293 183.733 C 330.293 183.901,330.651 184.039,331.088 184.039 C 331.526 184.039,331.974 184.186,332.085 184.365 C 332.195 184.544,332.534 184.696,332.837 184.702 C 333.140 184.708,333.974 184.996,334.691 185.342 C 335.407 185.688,336.250 185.976,336.564 185.982 C 336.877 185.989,337.134 186.133,337.134 186.304 C 337.134 186.475,337.647 186.712,338.274 186.829 C 338.901 186.947,339.414 187.173,339.414 187.333 C 339.414 187.492,339.707 187.622,340.065 187.622 C 340.423 187.622,340.717 187.752,340.717 187.910 C 340.717 188.068,340.973 188.292,341.287 188.406 C 341.600 188.521,342.443 188.975,343.160 189.415 C 343.876 189.855,344.682 190.317,344.951 190.442 C 345.220 190.567,345.513 190.753,345.603 190.856 C 345.692 190.958,346.425 191.550,347.231 192.170 C 348.037 192.791,348.746 193.414,348.806 193.555 C 348.865 193.696,349.105 193.811,349.338 193.811 C 349.571 193.811,349.986 194.141,350.260 194.544 C 350.533 194.947,351.430 195.999,352.251 196.881 C 353.073 197.763,353.746 198.679,353.746 198.916 C 353.746 199.154,353.890 199.349,354.065 199.349 C 354.241 199.349,354.477 199.715,354.589 200.163 C 354.702 200.611,354.924 200.977,355.084 200.977 C 355.244 200.977,355.375 201.197,355.375 201.466 C 355.375 201.735,355.510 201.954,355.674 201.954 C 355.839 201.954,356.071 202.394,356.189 202.932 C 356.307 203.469,356.537 203.909,356.700 203.909 C 356.862 203.909,357.089 204.495,357.204 205.212 C 357.318 205.928,357.523 206.515,357.659 206.515 C 357.795 206.515,358.010 207.211,358.137 208.062 C 358.264 208.913,358.484 209.756,358.626 209.935 C 359.789 211.399,359.812 227.025,358.653 228.492 C 358.508 228.676,358.288 229.520,358.166 230.367 C 358.043 231.214,357.821 231.982,357.673 232.074 C 357.524 232.165,357.306 232.755,357.188 233.384 C 357.070 234.013,356.850 234.528,356.699 234.528 C 356.548 234.528,356.328 235.041,356.210 235.668 C 356.093 236.295,355.857 236.808,355.686 236.808 C 355.515 236.808,355.375 237.028,355.375 237.296 C 355.375 237.565,355.228 237.785,355.049 237.785 C 354.870 237.785,354.723 237.938,354.723 238.124 C 354.723 238.463,353.615 240.150,352.850 240.975 C 352.626 241.217,352.443 241.529,352.443 241.670 C 352.443 242.050,348.188 246.254,347.803 246.254 C 347.620 246.254,346.994 246.760,346.410 247.379 C 345.827 247.997,344.967 248.600,344.499 248.717 C 344.031 248.834,343.648 249.031,343.648 249.154 C 343.648 249.277,342.659 249.879,341.450 250.492 C 340.240 251.105,339.176 251.710,339.085 251.836 C 338.993 251.962,338.517 252.166,338.026 252.290 C 337.535 252.413,337.134 252.631,337.134 252.775 C 337.134 252.919,336.547 253.136,335.831 253.257 C 335.114 253.378,334.528 253.598,334.528 253.746 C 334.528 253.894,333.910 254.119,333.156 254.246 C 332.401 254.374,331.559 254.600,331.283 254.750 C 330.814 255.005,328.804 255.506,326.547 255.932 C 326.010 256.033,325.495 256.232,325.402 256.374 C 325.310 256.515,323.918 256.736,322.308 256.864 C 320.698 256.992,319.279 257.255,319.154 257.448 C 318.831 257.949,295.062 257.955,294.431 257.455 C 294.180 257.255,292.442 256.996,290.569 256.879 C 288.697 256.762,287.084 256.539,286.986 256.383 C 286.888 256.228,286.148 256.022,285.342 255.926 C 283.014 255.649,280.014 255.044,279.450 254.738 C 279.165 254.584,278.102 254.354,277.088 254.227 C 276.074 254.100,275.244 253.884,275.244 253.746 C 275.244 253.608,274.438 253.395,273.453 253.271 C 272.467 253.148,271.661 252.928,271.661 252.782 C 271.661 252.636,271.002 252.418,270.195 252.297 C 269.389 252.176,268.730 251.940,268.730 251.772 C 268.730 251.603,268.372 251.466,267.935 251.466 C 267.497 251.466,267.057 251.332,266.956 251.168 C 266.855 251.005,266.187 250.772,265.472 250.651 C 264.758 250.531,264.090 250.298,263.989 250.135 C 263.888 249.971,263.557 249.836,263.254 249.835 C 262.951 249.834,262.281 249.613,261.765 249.343 C 261.248 249.074,260.259 248.763,259.566 248.652 C 258.873 248.542,258.306 248.323,258.306 248.167 C 258.306 248.011,258.086 247.883,257.818 247.883 C 257.549 247.883,257.329 247.738,257.329 247.561 C 257.329 247.384,256.743 247.145,256.026 247.031 C 255.309 246.916,254.723 246.694,254.723 246.538 C 254.723 246.382,254.540 246.253,254.316 246.252 C 254.092 246.251,253.516 246.045,253.035 245.794 C 252.554 245.543,251.712 245.240,251.162 245.119 C 250.612 244.998,250.163 244.764,250.163 244.600 C 250.163 244.435,249.943 244.300,249.674 244.300 C 249.406 244.300,249.186 244.153,249.186 243.974 C 249.186 243.795,249.018 243.648,248.814 243.648 C 248.610 243.648,247.767 243.334,246.941 242.950 C 246.115 242.567,244.927 242.017,244.300 241.729 C 243.673 241.441,243.086 241.131,242.997 241.039 C 242.907 240.948,242.248 240.581,241.531 240.225 C 240.814 239.868,240.153 239.478,240.062 239.358 C 239.971 239.238,239.494 239.039,239.003 238.916 C 238.512 238.792,238.111 238.573,238.111 238.427 C 238.111 238.282,237.634 238.059,237.052 237.933 C 236.470 237.807,235.900 237.556,235.786 237.377 C 234.970 236.096,234.853 238.108,234.853 253.405 C 234.853 270.601,234.763 269.707,236.509 269.707 C 236.852 269.707,237.134 269.853,237.134 270.033 C 237.134 270.212,237.418 270.358,237.766 270.358 C 238.114 270.358,238.483 270.496,238.588 270.665 C 238.692 270.834,239.434 271.071,240.236 271.191 C 241.038 271.311,241.694 271.527,241.694 271.670 C 241.694 271.813,242.279 272.029,242.995 272.150 C 243.711 272.270,244.369 272.486,244.457 272.629 C 244.545 272.772,245.275 272.988,246.080 273.108 C 246.884 273.229,247.622 273.457,247.720 273.616 C 247.818 273.774,248.556 274.002,249.360 274.123 C 250.164 274.244,250.902 274.472,251.000 274.630 C 251.098 274.789,251.536 274.919,251.974 274.919 C 252.411 274.919,252.769 275.055,252.769 275.221 C 252.769 275.387,253.575 275.624,254.560 275.747 C 255.546 275.870,256.352 276.090,256.352 276.236 C 256.352 276.381,257.158 276.601,258.143 276.724 C 259.129 276.847,259.935 277.066,259.935 277.210 C 259.935 277.355,260.888 277.575,262.052 277.699 C 263.217 277.824,264.169 278.040,264.169 278.178 C 264.169 278.447,264.813 278.590,268.811 279.214 C 270.200 279.431,271.336 279.715,271.336 279.847 C 271.336 279.978,272.511 280.188,273.949 280.313 C 275.386 280.439,276.632 280.656,276.718 280.795 C 276.805 280.935,278.121 281.153,279.643 281.280 C 281.165 281.407,282.410 281.640,282.410 281.797 C 282.410 281.955,283.334 282.085,284.463 282.085 C 285.591 282.085,286.667 282.237,286.853 282.423 C 287.044 282.614,289.631 282.850,292.782 282.963 C 295.856 283.073,298.371 283.287,298.371 283.438 C 298.371 283.590,302.329 283.713,307.166 283.713 C 312.003 283.713,315.961 283.589,315.961 283.437 C 315.961 283.285,318.543 283.077,321.700 282.975 C 325.131 282.864,327.580 282.648,327.791 282.437 C 327.985 282.243,328.838 282.085,329.688 282.085 C 330.537 282.085,331.311 281.957,331.407 281.802 C 331.503 281.646,332.904 281.415,334.521 281.288 C 336.137 281.162,337.459 280.935,337.459 280.783 C 337.459 280.632,338.412 280.406,339.577 280.281 C 340.741 280.156,341.694 279.944,341.694 279.809 C 341.694 279.674,342.573 279.463,343.648 279.342 C 344.723 279.220,345.603 278.981,345.603 278.811 C 345.603 278.641,346.042 278.502,346.580 278.502 C 347.117 278.502,347.557 278.369,347.557 278.206 C 347.557 278.044,348.290 277.810,349.186 277.687 C 350.081 277.564,350.814 277.343,350.814 277.197 C 350.814 277.050,351.401 276.831,352.117 276.710 C 352.834 276.589,353.420 276.356,353.420 276.193 C 353.420 276.029,353.655 275.896,353.941 275.896 C 354.494 275.896,356.729 274.934,357.003 274.579 C 357.093 274.462,357.604 274.260,358.140 274.129 C 358.676 273.997,359.189 273.791,359.280 273.671 C 359.371 273.551,360.179 273.086,361.075 272.638 C 361.971 272.191,362.777 271.751,362.866 271.661 C 362.956 271.572,363.579 271.244,364.251 270.934 C 364.923 270.623,365.472 270.236,365.472 270.073 C 365.472 269.911,365.839 269.685,366.287 269.573 C 366.735 269.461,367.101 269.225,367.101 269.049 C 367.101 268.873,367.291 268.730,367.523 268.730 C 367.975 268.730,368.826 268.130,370.414 266.694 C 370.959 266.201,371.506 265.798,371.630 265.798 C 371.822 265.798,372.594 265.076,374.841 262.795 C 375.066 262.565,375.873 261.770,376.632 261.026 C 377.392 260.283,378.379 259.203,378.827 258.627 C 379.275 258.051,379.875 257.340,380.161 257.047 C 380.446 256.754,380.954 256.038,381.290 255.456 C 381.625 254.874,382.014 254.397,382.155 254.397 C 382.295 254.397,382.410 254.178,382.410 253.909 C 382.410 253.640,382.541 253.420,382.700 253.420 C 382.859 253.420,383.551 252.284,384.239 250.896 C 384.926 249.507,385.590 248.297,385.715 248.205 C 385.840 248.114,386.043 247.637,386.166 247.147 C 386.289 246.656,386.521 246.254,386.680 246.254 C 386.840 246.254,386.971 246.051,386.971 245.803 C 386.971 245.554,387.190 244.931,387.457 244.418 C 387.725 243.905,387.945 243.237,387.946 242.935 C 387.947 242.632,388.086 242.298,388.255 242.194 C 388.424 242.090,388.660 241.348,388.780 240.546 C 388.901 239.744,389.115 239.088,389.256 239.088 C 389.397 239.088,389.615 238.208,389.739 237.134 C 389.864 236.059,390.098 235.179,390.260 235.179 C 390.422 235.179,390.554 234.748,390.554 234.221 C 390.554 233.694,390.684 233.182,390.844 233.084 C 391.004 232.985,391.240 231.436,391.368 229.642 C 391.497 227.847,391.732 226.298,391.892 226.200 C 392.262 225.971,392.276 208.891,391.907 208.663 C 391.755 208.569,391.537 207.067,391.423 205.326 C 391.308 203.584,391.066 202.011,390.884 201.829 C 390.702 201.647,390.554 201.015,390.554 200.423 C 390.554 199.832,390.426 199.349,390.270 199.349 C 390.114 199.349,389.885 198.583,389.760 197.647 C 389.636 196.711,389.417 195.794,389.272 195.611 C 389.128 195.427,388.914 194.742,388.796 194.088 C 388.601 193.002,388.066 191.619,387.275 190.151 C 387.108 189.840,386.971 189.364,386.971 189.092 C 386.971 188.821,386.836 188.599,386.671 188.599 C 386.506 188.599,386.274 188.160,386.156 187.622 C 386.038 187.085,385.818 186.645,385.668 186.645 C 385.517 186.645,385.297 186.205,385.179 185.668 C 385.061 185.130,384.832 184.691,384.671 184.691 C 384.509 184.691,384.285 184.324,384.173 183.876 C 384.060 183.428,383.855 183.062,383.716 183.062 C 383.577 183.062,383.377 182.805,383.272 182.492 C 383.035 181.784,382.464 180.933,381.525 179.886 C 381.128 179.443,380.715 178.804,380.607 178.465 C 380.500 178.127,380.275 177.850,380.108 177.850 C 379.941 177.850,379.805 177.704,379.805 177.524 C 379.805 177.166,372.199 169.381,371.849 169.381 C 371.729 169.381,371.265 169.015,370.817 168.567 C 370.369 168.119,369.900 167.750,369.773 167.747 C 369.647 167.744,369.048 167.305,368.441 166.770 C 367.835 166.235,367.138 165.798,366.894 165.798 C 366.650 165.798,366.450 165.651,366.450 165.472 C 366.450 165.293,366.293 165.147,366.102 165.147 C 365.911 165.147,365.288 164.816,364.718 164.413 C 363.093 163.263,362.446 162.872,361.482 162.457 C 360.989 162.246,360.586 161.974,360.586 161.854 C 360.586 161.734,360.073 161.540,359.446 161.422 C 358.819 161.305,358.306 161.068,358.306 160.897 C 358.306 160.726,358.086 160.586,357.818 160.586 C 357.549 160.586,357.329 160.451,357.329 160.286 C 357.329 160.122,356.889 159.890,356.352 159.772 C 355.814 159.654,355.375 159.424,355.375 159.261 C 355.375 159.099,354.788 158.872,354.072 158.757 C 353.355 158.642,352.769 158.423,352.769 158.268 C 352.769 158.114,352.182 157.894,351.466 157.780 C 350.749 157.665,350.163 157.444,350.163 157.287 C 350.163 157.131,349.943 157.003,349.674 157.003 C 349.406 157.003,349.186 156.873,349.186 156.715 C 349.186 156.556,348.529 156.327,347.727 156.207 C 346.925 156.087,346.192 155.863,346.097 155.710 C 346.002 155.557,345.303 155.327,344.542 155.200 C 343.782 155.073,343.075 154.837,342.972 154.675 C 342.869 154.513,342.026 154.290,341.099 154.181 C 340.172 154.071,339.414 153.855,339.414 153.701 C 339.414 153.546,339.056 153.420,338.619 153.420 C 338.181 153.420,337.739 153.284,337.636 153.117 C 337.533 152.951,336.645 152.714,335.663 152.591 C 334.680 152.468,333.876 152.257,333.876 152.122 C 333.876 151.986,332.854 151.775,331.604 151.652 C 330.354 151.529,329.253 151.302,329.158 151.149 C 329.064 150.995,327.888 150.767,326.545 150.641 C 325.203 150.515,324.104 150.298,324.104 150.159 C 324.104 150.020,323.555 149.822,322.883 149.719 C 318.713 149.084,316.755 148.708,316.612 148.515 C 316.523 148.394,315.423 148.188,314.169 148.057 C 312.915 147.926,311.743 147.704,311.564 147.565 C 311.384 147.425,310.248 147.208,309.039 147.082 C 307.830 146.956,306.840 146.734,306.840 146.588 C 306.840 146.442,305.668 146.218,304.235 146.091 C 302.801 145.964,301.629 145.729,301.629 145.569 C 301.629 145.408,301.198 145.277,300.671 145.277 C 300.144 145.277,299.635 145.151,299.540 144.998 C 299.445 144.844,298.615 144.629,297.695 144.520 C 296.775 144.411,295.855 144.187,295.650 144.022 C 295.445 143.856,294.507 143.618,293.567 143.491 C 292.627 143.365,291.781 143.137,291.687 142.985 C 291.593 142.833,290.860 142.610,290.058 142.490 C 289.256 142.370,288.599 142.141,288.599 141.983 C 288.599 141.824,288.233 141.694,287.785 141.694 C 287.337 141.694,286.971 141.549,286.971 141.372 C 286.971 141.195,286.384 140.956,285.668 140.842 C 284.951 140.727,284.365 140.506,284.365 140.349 C 284.365 140.193,284.182 140.064,283.958 140.063 C 283.734 140.062,283.157 139.856,282.677 139.605 C 282.196 139.355,281.353 139.051,280.804 138.930 C 280.254 138.809,279.805 138.599,279.805 138.462 C 279.805 138.325,279.259 137.934,278.592 137.592 C 277.297 136.929,277.139 136.823,275.927 135.825 C 275.497 135.470,275.016 135.179,274.858 135.179 C 274.302 135.179,270.033 130.291,270.033 129.654 C 270.033 129.457,269.813 129.211,269.544 129.108 C 269.275 129.005,269.054 128.753,269.053 128.548 C 269.052 128.343,268.846 127.783,268.595 127.302 C 268.345 126.821,268.041 125.979,267.920 125.429 C 267.799 124.880,267.566 124.430,267.401 124.430 C 267.236 124.430,267.101 124.064,267.101 123.616 C 267.101 123.168,266.968 122.801,266.804 122.801 C 266.641 122.801,266.404 121.555,266.277 120.033 C 266.151 118.510,265.917 117.264,265.760 117.264 C 265.390 117.264,265.381 108.564,265.750 108.336 C 265.903 108.242,266.116 107.111,266.224 105.823 C 266.332 104.536,266.573 103.329,266.761 103.142 C 266.948 102.955,267.101 102.473,267.101 102.071 C 267.101 101.670,267.231 101.261,267.390 101.163 C 267.549 101.065,267.775 100.470,267.893 99.841 C 268.011 99.212,268.248 98.697,268.419 98.697 C 268.590 98.697,268.730 98.414,268.730 98.069 C 268.730 97.723,268.942 97.228,269.202 96.968 C 269.462 96.708,269.771 96.111,269.889 95.642 C 270.007 95.172,270.202 94.788,270.323 94.788 C 270.444 94.788,270.820 94.312,271.158 93.730 C 271.497 93.147,271.968 92.554,272.206 92.411 C 272.444 92.267,272.638 91.993,272.638 91.801 C 272.638 91.478,274.858 89.265,277.729 86.726 C 278.387 86.144,279.124 85.668,279.365 85.668 C 279.607 85.668,279.805 85.521,279.805 85.342 C 279.805 85.163,280.024 85.016,280.293 85.016 C 280.562 85.016,280.782 84.872,280.782 84.697 C 280.782 84.521,281.148 84.285,281.596 84.173 C 282.044 84.060,282.410 83.849,282.410 83.704 C 282.410 83.558,282.850 83.343,283.388 83.225 C 283.925 83.107,284.365 82.887,284.365 82.736 C 284.365 82.585,284.805 82.366,285.342 82.248 C 285.879 82.130,286.319 81.898,286.319 81.733 C 286.319 81.568,286.686 81.433,287.134 81.433 C 287.581 81.433,287.948 81.288,287.948 81.111 C 287.948 80.934,288.534 80.696,289.251 80.581 C 289.967 80.467,290.554 80.262,290.554 80.126 C 290.554 79.991,291.360 79.779,292.345 79.656 C 293.331 79.533,294.137 79.320,294.137 79.184 C 294.137 78.955,296.633 78.419,299.837 77.958 C 300.554 77.855,301.219 77.647,301.315 77.497 C 301.411 77.346,303.500 77.121,305.957 76.998 C 308.413 76.875,310.423 76.650,310.423 76.498 C 310.423 76.346,312.622 76.221,315.309 76.221 C 317.997 76.221,320.195 76.345,320.195 76.496 C 320.195 76.647,322.651 76.867,325.651 76.986 C 328.789 77.109,331.154 77.339,331.216 77.525 C 331.276 77.704,332.045 77.850,332.926 77.850 C 333.807 77.850,334.528 77.976,334.528 78.129 C 334.528 78.283,335.579 78.506,336.865 78.625 C 338.151 78.745,339.366 78.979,339.566 79.145 C 339.767 79.311,340.914 79.548,342.115 79.671 C 343.317 79.794,344.300 80.001,344.300 80.131 C 344.300 80.261,344.956 80.457,345.758 80.567 C 346.561 80.677,347.477 80.913,347.794 81.090 C 348.653 81.570,351.399 82.410,352.109 82.410 C 352.451 82.410,352.816 82.549,352.920 82.717 C 353.024 82.886,353.766 83.123,354.568 83.243 C 355.370 83.363,356.026 83.583,356.026 83.730 C 356.026 83.878,356.686 84.098,357.492 84.219 C 358.298 84.340,358.958 84.569,358.958 84.728 C 358.958 84.886,359.242 85.016,359.590 85.016 C 359.938 85.016,360.313 85.163,360.423 85.342 C 360.534 85.521,360.873 85.673,361.176 85.679 C 361.479 85.685,362.313 85.973,363.029 86.319 C 363.746 86.665,364.589 86.954,364.902 86.960 C 365.216 86.966,365.472 87.101,365.472 87.260 C 365.472 87.419,366.022 87.653,366.693 87.779 C 367.364 87.905,367.987 88.104,368.077 88.222 C 368.339 88.565,370.660 89.577,371.184 89.577 C 371.446 89.577,371.661 89.711,371.661 89.876 C 371.661 90.041,372.101 90.273,372.638 90.391 C 373.176 90.509,373.616 90.724,373.616 90.869 C 373.616 91.014,374.118 91.227,374.732 91.342 C 375.346 91.457,375.896 91.687,375.953 91.852 C 376.011 92.017,376.682 92.251,377.443 92.372 L 378.827 92.591 378.827 77.416 L 378.827 62.241 377.443 61.872 C 376.682 61.669,375.833 61.388,375.558 61.248 C 375.282 61.107,374.439 60.888,373.685 60.761 C 372.930 60.633,372.313 60.412,372.313 60.269 C 372.313 60.126,371.632 59.907,370.799 59.782 C 369.967 59.657,369.050 59.434,368.763 59.286 C 367.863 58.824,364.781 57.980,363.988 57.980 C 363.572 57.980,363.145 57.842,363.041 57.674 C 362.937 57.505,362.158 57.277,361.312 57.168 C 360.465 57.059,359.532 56.840,359.239 56.681 C 358.946 56.522,357.810 56.291,356.715 56.167 C 355.619 56.043,354.723 55.827,354.723 55.686 C 354.723 55.545,353.624 55.327,352.280 55.201 C 350.936 55.075,349.837 54.843,349.837 54.685 C 349.837 54.527,349.251 54.397,348.534 54.397 C 347.818 54.397,347.231 54.264,347.231 54.102 C 347.231 53.940,345.802 53.702,344.055 53.575 C 342.309 53.448,340.733 53.227,340.554 53.084 C 340.375 52.942,338.469 52.719,336.319 52.589 C 334.169 52.459,332.333 52.234,332.239 52.089 C 332.144 51.944,329.396 51.722,326.131 51.596 C 322.867 51.470,320.195 51.242,320.195 51.090 C 320.195 50.731,309.212 50.729,308.990 51.088 " stroke="none" fill="#040404" fill-rule="evenodd"></path><path id="path2" d="" stroke="none" fill="#f84018" fill-rule="evenodd"></path><path id="path3" d="" stroke="none" fill="#f84018" fill-rule="evenodd"></path><path id="path4" d="" stroke="none" fill="#f84018" fill-rule="evenodd"></path></g></svg>